<?xml version="1.0" encoding="utf-8"?>
<!-- Generator: Adobe Illustrator 24.0.1, SVG Export Plug-In . SVG Version: 6.00 Build 0)  -->
<svg version="1.1" id="Capa_1" xmlns="http://www.w3.org/2000/svg" xmlns:xlink="http://www.w3.org/1999/xlink" x="0px" y="0px"
	 viewBox="0 0 263.6 36" style="enable-background:new 0 0 263.6 36;" xml:space="preserve">
<style type="text/css">
	.st0{fill:#FA6400;}
</style>
<g>
	<path class="st0" d="M17.5,0.3C8.3,0.3,0.9,7.7,0.9,16.9s7.4,16.6,16.6,16.6S34.1,26,34.1,16.9S26.7,0.3,17.5,0.3z M23.1,11.6
		C23,11.6,23,11.6,23.1,11.6c-0.1-0.1-0.4-0.2-1-0.4c-0.7-0.2-2-0.5-3.9-0.5c0.1,2.1,0.5,3.3,0.7,3.8l0,0.1c0.1,0.3,0.5,1,1,1.1
		c0,0,0.1,0.1,0.1,0.1c0,0,0,0,0,0.1l-2.3,15.6c0,0.1-0.1,0.1-0.1,0.1c-0.1,0-0.1-0.1-0.1-0.1l-2.3-15.6c0,0,0-0.1,0-0.1
		c0,0,0-0.1,0.1-0.1c0.5-0.2,0.9-0.8,1-1.1c0.2-0.5,0.6-1.7,0.7-3.9c-1.9,0.1-3.2,0.3-3.9,0.5c-0.7,0.2-0.9,0.4-0.9,0.4
		c0,0,0,0-0.1,0c0,0,0,0,0,0c-0.9,0-1.5-0.7-1.5-1.5c0-0.9,0.7-1.5,1.5-1.5c0,0,0,0,0,0c0,0,0,0,0.1,0c0,0,0.3,0.2,0.9,0.4
		c0.7,0.2,2,0.5,4,0.5c-0.1-1.9-0.3-3.2-0.5-3.9C16.2,4.9,16,4.6,16,4.5c0,0,0-0.1,0-0.1c0-0.4,0.2-0.8,0.4-1
		c0.3-0.3,0.7-0.4,1.1-0.4c0.2,0,0.5,0.1,0.7,0.2C18.7,3.3,19,3.9,19,4.5c0,0,0,0.1,0,0.1c0,0-0.2,0.3-0.4,0.9
		c-0.2,0.7-0.5,2-0.5,3.9c2,0,3.2-0.3,4-0.5C22.7,8.7,23,8.5,23,8.5c0,0,0.1,0,0.1,0c0.9,0,1.5,0.7,1.5,1.5
		C24.6,10.9,23.9,11.6,23.1,11.6z"/>
	<g>
		<path class="st0" d="M58.6,27.4L47.5,12.1h-0.1l0.1,15.2h-3.4V6.2l3.3-0.2l11.1,15.3h0.1L58.5,6.1H62v21.1L58.6,27.4z"/>
		<path class="st0" d="M77.1,19.1c0,0.1,0,0.2,0,0.3c0,0.1,0,0.1,0,0.2c0,0.1,0,0.1,0,0.2l-0.5,0.4l-8.5,0.2c0,0.5,0.1,1,0.2,1.5
			c0.1,0.5,0.4,1,0.7,1.5c0.3,0.5,0.7,0.8,1.3,1.1c0.5,0.3,1.2,0.4,2,0.4c0.4,0,0.8-0.1,1.2-0.1s0.8-0.2,1.1-0.3
			c0.4-0.1,0.7-0.3,1.1-0.5l1,2c-0.5,0.4-1.1,0.7-1.7,0.9c-0.5,0.2-1.1,0.4-1.8,0.6s-1.5,0.3-2.3,0.3c-1,0-1.9-0.2-2.7-0.6
			s-1.5-0.9-2.1-1.6c-0.6-0.7-1-1.5-1.4-2.4c-0.3-0.9-0.5-2-0.5-3.1c0-1,0.2-2,0.5-2.9c0.3-1,0.8-1.9,1.4-2.6
			c0.6-0.8,1.4-1.4,2.2-1.9c0.9-0.5,1.8-0.7,2.9-0.7c1.2,0,2.1,0.3,2.9,0.8c0.8,0.6,1.3,1.2,1.8,2c0.4,0.8,0.7,1.6,0.9,2.4
			C77.1,18,77.1,18.6,77.1,19.1z M73.9,17.8c0-0.3,0-0.6-0.1-0.9c-0.1-0.4-0.2-0.7-0.4-1c-0.2-0.3-0.5-0.6-0.8-0.8s-0.7-0.4-1.2-0.4
			c-0.5,0-1,0.1-1.4,0.4c-0.4,0.3-0.7,0.6-0.9,1c-0.2,0.4-0.4,0.8-0.6,1.2c-0.1,0.4-0.2,0.7-0.3,1L73.9,17.8z"/>
		<path class="st0" d="M93.2,15H91v0c0,0,0.1,0.2,0.3,0.6s0.3,0.9,0.3,1.6c0,0.9-0.2,1.6-0.5,2.3c-0.3,0.7-0.8,1.2-1.3,1.7
			c-0.5,0.4-1.2,0.8-1.9,1c-0.7,0.2-1.4,0.3-2.1,0.3c-0.2,0-0.4,0-0.6,0c-0.2,0-0.4,0-0.5-0.1c-0.2,0-0.3,0-0.5-0.1
			c-0.5,0.2-0.9,0.4-1.2,0.6c-0.3,0.2-0.6,0.4-0.8,0.6c-0.2,0.2-0.4,0.5-0.4,0.7c0,0.3,0.1,0.5,0.3,0.7c0.2,0.2,0.5,0.3,0.9,0.3
			s0.8,0.1,1.4,0.1c0.5,0,1.1,0,1.7,0.1c0.9,0,1.8,0.1,2.6,0.3c0.8,0.2,1.6,0.4,2.2,0.8s1.2,0.9,1.6,1.5c0.4,0.6,0.6,1.4,0.6,2.4
			c0,0.9-0.2,1.6-0.6,2.3c-0.4,0.7-0.9,1.2-1.6,1.7c-0.7,0.5-1.5,0.8-2.4,1c-0.9,0.2-1.9,0.3-3,0.3c-1,0-2-0.1-2.8-0.3
			c-0.9-0.2-1.6-0.4-2.3-0.8c-0.7-0.4-1.2-0.8-1.5-1.4c-0.4-0.6-0.6-1.2-0.6-2c0-0.6,0.1-1.1,0.4-1.6c0.3-0.5,0.5-0.9,0.9-1.2
			c0.3-0.3,0.6-0.6,0.9-0.8c0.3-0.2,0.5-0.3,0.5-0.4v0c-0.2-0.1-0.5-0.2-0.8-0.3s-0.6-0.3-0.9-0.5c-0.3-0.2-0.5-0.5-0.7-0.8
			c-0.2-0.3-0.3-0.7-0.3-1.2c0-0.4,0.1-0.8,0.3-1.2c0.2-0.3,0.5-0.6,0.8-0.9c0.3-0.3,0.6-0.5,1-0.7s0.7-0.3,1-0.5
			c-0.1,0-0.2-0.2-0.5-0.3c-0.3-0.2-0.6-0.5-0.9-0.8c-0.3-0.4-0.6-0.8-0.8-1.4c-0.2-0.5-0.4-1.2-0.4-2c0-0.8,0.2-1.5,0.5-2.1
			c0.3-0.6,0.8-1.2,1.3-1.7c0.6-0.5,1.2-0.8,2-1.1c0.8-0.3,1.6-0.4,2.6-0.4c0.6,0,1.1,0,1.6,0.1c0.5,0.1,0.8,0.2,1.2,0.3
			c0.4,0.1,0.7,0.3,0.9,0.4l4.4-0.8L93.2,15z M89.4,30.5c0-0.6-0.2-1.1-0.6-1.4s-0.9-0.5-1.4-0.7c-0.6-0.1-1.2-0.2-1.8-0.3
			c-0.6,0-1.2-0.1-1.6-0.1c0,0-0.1,0.1-0.4,0.2c-0.2,0.1-0.5,0.3-0.7,0.6c-0.3,0.3-0.5,0.5-0.7,0.9c-0.2,0.3-0.3,0.7-0.3,1.2
			s0.1,0.8,0.3,1.1c0.2,0.3,0.5,0.6,0.8,0.8c0.3,0.2,0.7,0.4,1.1,0.4c0.4,0.1,0.9,0.1,1.3,0.1c0.4,0,0.9-0.1,1.4-0.2
			c0.5-0.1,0.9-0.3,1.3-0.5c0.4-0.2,0.7-0.5,0.9-0.9C89.3,31.5,89.4,31,89.4,30.5z M88.1,17.3c0-0.9-0.3-1.6-0.8-2.2
			c-0.5-0.5-1.2-0.8-2-0.8c-0.8,0-1.5,0.3-2,0.8c-0.6,0.5-0.8,1.2-0.8,2c0,0.9,0.3,1.6,0.8,2.2c0.5,0.5,1.2,0.8,2.1,0.8
			c0.8,0,1.4-0.3,2-0.8C87.8,18.8,88.1,18.2,88.1,17.3z"/>
		<path class="st0" d="M107.8,19.9c0,1.1-0.2,2.2-0.5,3.2c-0.3,1-0.8,1.8-1.4,2.5c-0.6,0.7-1.4,1.2-2.3,1.6s-1.9,0.6-3,0.6
			c-1.2,0-2.2-0.2-3.1-0.6c-0.9-0.4-1.6-1-2.3-1.7c-0.6-0.7-1.1-1.6-1.4-2.5c-0.3-1-0.5-2-0.5-3.1c0-1.1,0.2-2.2,0.5-3.2
			c0.3-1,0.8-1.8,1.4-2.5s1.4-1.2,2.3-1.6c0.9-0.4,1.9-0.6,3-0.6c1.2,0,2.2,0.2,3.1,0.6c0.9,0.4,1.6,1,2.3,1.7
			c0.6,0.7,1.1,1.6,1.4,2.5C107.7,17.7,107.8,18.8,107.8,19.9z M104,19.9c0-1.6-0.3-2.9-1-3.8c-0.6-0.9-1.5-1.4-2.5-1.4
			c-1.1,0-1.9,0.4-2.5,1.3c-0.6,0.9-0.9,2.1-0.9,3.7c0,1.6,0.3,2.9,1,3.8c0.7,0.9,1.5,1.4,2.5,1.4c1.1,0,1.9-0.4,2.5-1.3
			C103.7,22.7,104,21.5,104,19.9z"/>
		<path class="st0" d="M120.7,25.9c-0.5,0.4-1.1,0.7-1.7,0.9c-0.5,0.2-1.1,0.4-1.8,0.6s-1.4,0.3-2.1,0.3c-0.8,0-1.6-0.2-2.4-0.5
			c-0.7-0.4-1.4-0.8-1.9-1.5c-0.5-0.6-1-1.4-1.3-2.3c-0.3-0.9-0.5-1.9-0.5-3c0-1.1,0.2-2.2,0.5-3.2c0.4-1,0.9-1.9,1.5-2.7
			c0.6-0.8,1.4-1.4,2.3-1.9s1.9-0.7,3-0.7c0.5,0,1,0.1,1.5,0.1c0.5,0.1,0.9,0.2,1.2,0.3c0.4,0.1,0.8,0.3,1.2,0.4l-0.9,2.5l-0.6-0.2
			c-0.2,0-0.4-0.1-0.6-0.1c-0.2,0-0.5-0.1-0.8-0.1c-0.7,0-1.3,0.1-1.8,0.4c-0.5,0.3-1,0.6-1.4,1.1c-0.4,0.5-0.7,1-0.9,1.7
			c-0.2,0.6-0.3,1.3-0.3,2.1c0,1.3,0.3,2.4,1,3.2c0.7,0.8,1.6,1.2,2.7,1.2c0.4,0,0.8,0,1.2-0.1c0.4-0.1,0.7-0.1,1-0.2
			c0.4-0.1,0.7-0.2,0.9-0.3L120.7,25.9z"/>
		<path class="st0" d="M126,6.9c0,0.6-0.2,1.1-0.6,1.5s-0.9,0.6-1.4,0.6c-0.6,0-1-0.2-1.4-0.6C122.2,8,122,7.5,122,6.9
			s0.2-1.1,0.6-1.5c0.4-0.4,0.9-0.6,1.4-0.6s1,0.2,1.4,0.6C125.8,5.8,126,6.3,126,6.9z M122.2,27.3v-15h3.6v15
			C125.8,27.3,122.2,27.3,122.2,27.3z"/>
		<path class="st0" d="M142.3,19.9c0,1.1-0.2,2.2-0.5,3.2c-0.3,1-0.8,1.8-1.4,2.5c-0.6,0.7-1.4,1.2-2.3,1.6c-0.9,0.4-1.9,0.6-3,0.6
			c-1.2,0-2.2-0.2-3.1-0.6c-0.9-0.4-1.6-1-2.3-1.7c-0.6-0.7-1.1-1.6-1.4-2.5c-0.3-1-0.5-2-0.5-3.1c0-1.1,0.2-2.2,0.5-3.2
			c0.3-1,0.8-1.8,1.4-2.5c0.6-0.7,1.4-1.2,2.3-1.6c0.9-0.4,1.9-0.6,3-0.6c1.2,0,2.2,0.2,3.1,0.6c0.9,0.4,1.6,1,2.3,1.7
			c0.6,0.7,1.1,1.6,1.4,2.5C142.1,17.7,142.3,18.8,142.3,19.9z M138.5,19.9c0-1.6-0.3-2.9-1-3.8c-0.6-0.9-1.5-1.4-2.5-1.4
			c-1.1,0-1.9,0.4-2.5,1.3c-0.6,0.9-0.9,2.1-0.9,3.7c0,1.6,0.3,2.9,1,3.8c0.7,0.9,1.5,1.4,2.5,1.4c1.1,0,1.9-0.4,2.5-1.3
			C138.2,22.7,138.5,21.5,138.5,19.9z"/>
		<path class="st0" d="M153.3,23.2c0,0.9-0.2,1.6-0.5,2.2c-0.3,0.6-0.8,1-1.3,1.4c-0.5,0.4-1.1,0.6-1.8,0.8s-1.3,0.2-2,0.2
			c-0.6,0-1.2-0.1-1.8-0.2c-0.5-0.1-1-0.2-1.4-0.4c-0.5-0.2-0.9-0.4-1.3-0.6l0.9-2.3c0.3,0.1,0.6,0.3,0.9,0.4
			c0.3,0.1,0.6,0.2,0.9,0.3c0.4,0.1,0.7,0.1,1.1,0.1c0.3,0,0.6,0,0.9-0.1c0.3-0.1,0.6-0.2,0.9-0.3c0.3-0.1,0.5-0.3,0.6-0.6
			c0.2-0.2,0.2-0.5,0.2-0.9c0-0.4-0.2-0.7-0.5-1c-0.3-0.3-0.7-0.5-1.2-0.8c-0.5-0.2-1-0.5-1.5-0.7c-0.5-0.3-1-0.6-1.5-0.9
			c-0.5-0.4-0.9-0.8-1.2-1.3s-0.5-1.1-0.5-1.9c0-0.8,0.2-1.5,0.5-2.1c0.4-0.6,0.8-1,1.4-1.4c0.5-0.4,1.1-0.6,1.8-0.8
			s1.3-0.3,1.9-0.3c0.5,0,1,0.1,1.5,0.1c0.5,0.1,0.9,0.2,1.3,0.3c0.5,0.1,0.9,0.3,1.3,0.4l-0.8,2.3c-0.3-0.1-0.6-0.2-0.9-0.3
			c-0.3-0.1-0.6-0.2-0.9-0.2c-0.3-0.1-0.7-0.1-1-0.1c-0.3,0-0.6,0-0.9,0.1c-0.3,0.1-0.6,0.2-0.8,0.3c-0.2,0.2-0.4,0.4-0.6,0.6
			c-0.2,0.2-0.2,0.5-0.2,0.9c0,0.4,0.2,0.7,0.5,1c0.3,0.3,0.7,0.5,1.2,0.8c0.5,0.3,1,0.5,1.5,0.8c0.5,0.3,1,0.6,1.5,1
			c0.5,0.4,0.9,0.8,1.2,1.3C153.2,21.8,153.3,22.4,153.3,23.2z"/>
		<path class="st0" d="M169.2,28.7c-0.3,0.8-0.6,1.5-1,2.4c-0.4,0.8-0.9,1.6-1.6,2.2c-0.5,0.5-1,1-1.6,1.3c-0.6,0.3-1.1,0.6-1.7,0.7
			c-0.5,0.2-1,0.3-1.4,0.4s-0.7,0.1-0.8,0.1l-0.6-2.1c0.3-0.1,0.6-0.2,1-0.4c0.4-0.2,0.8-0.4,1.3-0.7s0.9-0.7,1.3-1.2
			c0.4-0.5,0.8-1.1,1.1-1.8l0.9-2.1l-6.1-15.3h4l3.8,11.5h0.1l3.9-11.5h3.6L169.2,28.7z"/>
		<path class="st0" d="M197.5,12.2c0,1.1-0.2,2.1-0.6,3s-0.9,1.6-1.6,2.1c-0.7,0.6-1.4,1-2.3,1.3c-0.9,0.3-1.8,0.4-2.8,0.4
			c-0.4,0-0.8,0-1.1,0s-0.6-0.1-0.9-0.1c-0.3,0-0.5-0.1-0.8-0.1v8.6h-3.7V6.1h6.5c0.9,0,1.8,0.1,2.7,0.3c0.9,0.2,1.7,0.6,2.3,1
			c0.7,0.5,1.2,1.1,1.6,1.9C197.3,10.1,197.5,11.1,197.5,12.2z M193.7,12.4c0-0.5-0.1-0.9-0.2-1.3c-0.2-0.4-0.4-0.7-0.6-1
			c-0.6-0.6-1.5-1-2.7-1h-2.7v6.7c0.2,0,0.4,0.1,0.7,0.1c0.2,0,0.5,0.1,0.7,0.1c0.3,0,0.6,0,0.9,0c1.1,0,2.1-0.3,2.8-0.9
			S193.7,13.6,193.7,12.4z"/>
		<path class="st0" d="M206.9,28.7c-0.3,0.8-0.6,1.5-1,2.4c-0.4,0.8-0.9,1.6-1.6,2.2c-0.5,0.5-1,1-1.6,1.3c-0.6,0.3-1.1,0.6-1.7,0.7
			c-0.5,0.2-1,0.3-1.4,0.4s-0.7,0.1-0.8,0.1l-0.6-2.1c0.3-0.1,0.6-0.2,1-0.4c0.4-0.2,0.8-0.4,1.3-0.7c0.4-0.3,0.9-0.7,1.3-1.2
			c0.4-0.5,0.8-1.1,1.1-1.8l0.9-2.1l-6.1-15.3h4l3.8,11.5h0.1l3.9-11.5h3.6L206.9,28.7z"/>
		<path class="st0" d="M232.1,27.3V18c0-0.8-0.2-1.5-0.5-2c-0.3-0.5-0.8-0.7-1.5-0.7c-0.4,0-0.8,0.1-1.2,0.2
			c-0.4,0.2-0.7,0.3-1.1,0.5c-0.4,0.2-0.7,0.5-1.1,0.7v10.6h-3.6V18c0-0.8-0.2-1.5-0.4-2c-0.3-0.5-0.8-0.7-1.5-0.7
			c-0.4,0-0.8,0.1-1.2,0.2c-0.4,0.2-0.8,0.3-1.1,0.5c-0.4,0.2-0.8,0.5-1.1,0.7v10.6h-3.5v-15h3.2l0.2,2h0.1c0.5-0.4,1-0.8,1.5-1.2
			c0.5-0.3,1-0.6,1.5-0.8s1.1-0.4,1.7-0.4c0.6,0,1.1,0.1,1.6,0.4c0.5,0.3,0.9,0.6,1.2,0.9c0.2,0.2,0.3,0.3,0.4,0.5
			c0.1,0.2,0.2,0.3,0.3,0.5c0.1,0.2,0.2,0.3,0.2,0.4c0.5-0.5,1.1-0.9,1.7-1.3c0.5-0.4,1.1-0.7,1.7-1c0.6-0.3,1.3-0.4,1.9-0.4
			c0.6,0,1.1,0.1,1.6,0.4c0.5,0.3,0.9,0.6,1.2,0.9c0.5,0.6,0.8,1.2,1,1.9c0.2,0.7,0.3,1.5,0.3,2.4v9.8L232.1,27.3L232.1,27.3z"/>
		<path class="st0" d="M250.3,19.1c0,0.1,0,0.2,0,0.3c0,0.1,0,0.1,0,0.2c0,0.1,0,0.1,0,0.2l-0.5,0.4l-8.5,0.2c0,0.5,0.1,1,0.2,1.5
			c0.1,0.5,0.4,1,0.7,1.5c0.3,0.5,0.7,0.8,1.3,1.1c0.5,0.3,1.2,0.4,2,0.4c0.4,0,0.8-0.1,1.2-0.1s0.8-0.2,1.1-0.3
			c0.4-0.1,0.7-0.3,1.1-0.5l1,2c-0.5,0.4-1.1,0.7-1.7,0.9c-0.5,0.2-1.1,0.4-1.8,0.6c-0.7,0.2-1.5,0.3-2.3,0.3c-1,0-1.9-0.2-2.7-0.6
			c-0.8-0.4-1.5-0.9-2.1-1.6c-0.6-0.7-1-1.5-1.4-2.4c-0.3-0.9-0.5-2-0.5-3.1c0-1,0.2-2,0.5-2.9c0.3-1,0.8-1.9,1.4-2.6
			c0.6-0.8,1.4-1.4,2.2-1.9c0.9-0.5,1.8-0.7,2.9-0.7c1.2,0,2.1,0.3,2.9,0.8s1.3,1.2,1.8,2c0.4,0.8,0.7,1.6,0.9,2.4
			C250.2,18,250.3,18.6,250.3,19.1z M247.1,17.8c0-0.3,0-0.6-0.1-0.9c-0.1-0.4-0.2-0.7-0.4-1c-0.2-0.3-0.5-0.6-0.8-0.8
			c-0.3-0.2-0.7-0.4-1.2-0.4c-0.5,0-1,0.1-1.4,0.4c-0.4,0.3-0.7,0.6-0.9,1c-0.2,0.4-0.4,0.8-0.6,1.2c-0.1,0.4-0.2,0.7-0.3,1
			L247.1,17.8z"/>
		<path class="st0" d="M261.2,23.2c0,0.9-0.2,1.6-0.5,2.2c-0.3,0.6-0.8,1-1.3,1.4c-0.5,0.4-1.1,0.6-1.8,0.8s-1.3,0.2-2,0.2
			c-0.6,0-1.2-0.1-1.8-0.2c-0.5-0.1-1-0.2-1.4-0.4c-0.5-0.2-0.9-0.4-1.3-0.6l0.9-2.3c0.3,0.1,0.6,0.3,0.9,0.4
			c0.3,0.1,0.6,0.2,0.9,0.3c0.4,0.1,0.7,0.1,1.1,0.1c0.3,0,0.6,0,0.9-0.1c0.3-0.1,0.6-0.2,0.9-0.3c0.3-0.1,0.5-0.3,0.6-0.6
			c0.2-0.2,0.2-0.5,0.2-0.9c0-0.4-0.2-0.7-0.5-1c-0.3-0.3-0.7-0.5-1.2-0.8c-0.5-0.2-1-0.5-1.5-0.7c-0.5-0.3-1-0.6-1.5-0.9
			c-0.5-0.4-0.9-0.8-1.2-1.3s-0.5-1.1-0.5-1.9c0-0.8,0.2-1.5,0.5-2.1c0.4-0.6,0.8-1,1.4-1.4c0.5-0.4,1.1-0.6,1.8-0.8
			s1.3-0.3,1.9-0.3c0.5,0,1,0.1,1.5,0.1c0.5,0.1,0.9,0.2,1.3,0.3c0.5,0.1,0.9,0.3,1.3,0.4l-0.8,2.3c-0.3-0.1-0.6-0.2-0.9-0.3
			c-0.3-0.1-0.6-0.2-0.9-0.2c-0.3-0.1-0.7-0.1-1-0.1c-0.3,0-0.6,0-0.9,0.1c-0.3,0.1-0.6,0.2-0.8,0.3c-0.2,0.2-0.4,0.4-0.6,0.6
			c-0.2,0.2-0.2,0.5-0.2,0.9c0,0.4,0.2,0.7,0.5,1c0.3,0.3,0.7,0.5,1.2,0.8c0.5,0.3,1,0.5,1.5,0.8c0.5,0.3,1,0.6,1.5,1
			c0.5,0.4,0.9,0.8,1.2,1.3C261,21.8,261.2,22.4,261.2,23.2z"/>
	</g>
</g>
</svg>
